<svg width="18" height="18" fill="none" xmlns="http://www.w3.org/2000/svg"><g clip-path="url(#clip0_2_237)" fill="#252525"><path d="M17.765 3.637L12.33 9.038l5.436 5.4c.098-.205.158-.431.158-.674V4.312c0-.242-.06-.47-.158-.675zm-1.417-.9H1.575c-.242 0-.47.06-.674.158l6.947 6.912a1.577 1.577 0 002.228 0l6.947-6.912a1.557 1.557 0 00-.675-.158zm-16.19.9A1.557 1.557 0 000 4.312v9.452c0 .243.06.47.158.675l5.435-5.4L.158 3.636z"/><path d="M11.587 9.78l-.769.77a2.628 2.628 0 01-3.713 0l-.769-.77-5.435 5.402c.205.098.432.157.674.157h14.773c.242 0 .47-.06.675-.158l-5.436-5.4z"/></g><defs><clipPath id="clip0_2_237"><path fill="#fff" transform="translate(0 .077)" d="M0 0h17.923v17.923H0z"/></clipPath></defs></svg>