<svg width="9" height="9" fill="none" xmlns="http://www.w3.org/2000/svg"><path d="M8.623.416c-.26.111-.812.273-1.253.37-1.046.223-1.805.485-2.612.9-.42.22-1.163.677-1.304.803a1.17 1.17 0 00.203.126l.214.12.119-.074a1.85 1.85 0 00.51-.486.997.997 0 01.104-.15c.03-.006-.03.152-.108.291-.087.155-.29.362-.433.445-.086.047-.082.06.063.166.101.076.298.268.454.445.062.073.093.05.198-.154.088-.172.237-.28.6-.439.35-.15.473-.263.94-.852.568-.715.705-.88.62-.737-.144.238-.609.902-.813 1.16-.224.282-.367.39-.704.541-.28.125-.376.193-.459.316a3.926 3.926 0 01-.148.215l-.073.105.13.08c.22.139.646.362.754.4l.102.035.137-.175c.164-.21.427-.646.65-1.083.192-.38.202-.398.143-.221-.14.411-.501 1.12-.697 1.374l-.132.17.294.123.299.125.059-.067c.088-.095.32-.44.43-.642.133-.239.228-.535.245-.765.025-.383.214-.854.634-1.604.292-.522.28-.477-.07.261-.262.55-.393.953-.429 1.33a2.507 2.507 0 01-.08.443c-.071.212-.268.575-.457.851-.154.226-.162.244-.104.272.092.045.65.223.683.217.014-.002.17-.154.344-.34.212-.225.336-.38.38-.48.103-.23.17-.582.221-1.133.052-.578.104-.965.125-.955.01.004.01.035.006.066-.007.032-.02.301-.029.598-.024.907-.098 1.348-.273 1.608-.042.061-.2.247-.353.41l-.281.301.2.094.201.093.052-.07.054-.071-.026.083-.027.083.192.116c.103.064.2.117.214.12.085.01.336-.753.405-1.224.084-.586.065-1.064-.073-1.911-.102-.622-.096-.806.029-1.172.077-.225.095-.51.035-.492-.014.002-.058.021-.105.041zM5.766 1.694c-.047.11-.417.525-.681.764-.121.11-.316.287-.434.397-.121.108-.22.189-.222.177-.01-.036.39-.464.81-.864.235-.224.453-.439.482-.48.073-.092.086-.092.045.006zm2.386.002a9.226 9.226 0 00-.246 1.074c-.028.17-.055.286-.064.261-.021-.077.016-.472.07-.716.05-.245.298-.983.323-.973.007.006-.03.164-.083.354z" fill="#BC5D1D"/><path d="M2.749 2.37c-.647.335-1.542 1.436-1.804 2.22-.348 1.034-.103 2.358.558 3.028.177.18.36.275.54.284.214.008.405.057.838.214.596.218.936.275 1.513.254.525-.018 1.462-.203 2.097-.414 1.285-.426 2.064-1.235 2.27-2.359l.026-.153-.09-.088c-.235-.233-1.017-.65-1.512-.808-.814-.261-1.898-.745-2.363-1.056a1.858 1.858 0 01-.297-.263c-.397-.444-.92-.786-1.386-.903-.198-.05-.216-.046-.39.044zm1.999 1.49c.37.233.882.49 1.238.617.153.054.482.154.738.22.544.145.953.293 1.217.44.298.162.316.205.034.075-.296-.136-.665-.252-1.202-.378a8.764 8.764 0 01-.657-.18 5.63 5.63 0 01-1.214-.608c-.217-.154-.481-.366-.46-.37.006 0 .144.083.306.184zm-3.152.443c-.07.19-.135.655-.139.96-.012.75.18 1.526.482 1.945.18.244.375.332.948.422.195.028.455.091.58.136.273.097.458.122.88.126.433.002 1.462-.158 1.862-.29a6.33 6.33 0 001.01-.434c.43-.244.915-.685 1.179-1.075.097-.145.065-.068-.05.116a3.596 3.596 0 01-.718.778c-.713.549-1.74.91-2.844.997-.63.052-1.057.02-1.368-.102a5.296 5.296 0 00-.624-.149c-.412-.08-.51-.107-.668-.196-.3-.165-.464-.428-.622-1.004-.196-.714-.184-1.51.035-2.154.04-.107.074-.196.083-.198.009-.001-.004.054-.026.122zM7.85 6.255c-.422.507-1.106.934-1.86 1.161-.38.115-1.005.201-1.354.188l-.237-.01.183-.014c.367-.026 1.186-.176 1.431-.26.687-.234 1.398-.666 1.84-1.113.143-.148.142-.129-.003.048z" fill="#BC5D1D"/></svg>