<svg width="28" height="25" fill="none" xmlns="http://www.w3.org/2000/svg"><path d="M25.03 3.065A7.151 7.151 0 0019.68.71c-1.543 0-2.956.494-4.2 1.467a8.653 8.653 0 00-1.699 1.794 8.648 8.648 0 00-1.698-1.794C10.84 1.204 9.426.71 7.884.71a7.152 7.152 0 00-5.349 2.355c-1.367 1.5-2.12 3.55-2.12 5.773 0 2.287.842 4.381 2.651 6.59 1.619 1.975 3.944 3.98 6.638 6.302.92.793 1.962 1.692 3.045 2.65a1.558 1.558 0 002.066 0c1.083-.958 2.126-1.857 3.046-2.65 2.693-2.322 5.02-4.327 6.638-6.303 1.809-2.208 2.651-4.302 2.651-6.59 0-2.221-.753-4.271-2.12-5.772z" fill="#FEB302"/></svg>