<svg width="20" height="20" fill="none" xmlns="http://www.w3.org/2000/svg"><g clip-path="url(#clip0_2_233)"><path d="M9.962 0C5.983 0 2.747 3.237 2.747 7.215c0 4.938 6.457 12.186 6.732 12.493a.65.65 0 00.966 0c.275-.306 6.732-7.555 6.732-12.493C17.177 3.237 13.941 0 9.962 0zm0 10.846a3.634 3.634 0 01-3.63-3.63 3.634 3.634 0 013.63-3.63 3.634 3.634 0 013.63 3.63 3.634 3.634 0 01-3.63 3.63z" fill="#252525"/></g><defs><clipPath id="clip0_2_233"><path fill="#fff" d="M0 0h19.923v19.923H0z"/></clipPath></defs></svg>