<svg width="155" height="57" fill="none" xmlns="http://www.w3.org/2000/svg"><path d="M46.081 28.094c.054-.274.09-.492.109-.657.018-.182-.046-.373-.19-.574.072-.291.127-.52.163-.683.054-.164.063-.392.027-.684a3.12 3.12 0 01.73-1.203 5.303 5.303 0 011.111-.82 6.431 6.431 0 011.246-.575c.433-.164.84-.3 1.218-.41 0-.073-.036-.11-.108-.11-.072 0-.09-.045-.054-.136.975-.182 1.95-.446 2.925-.793a41.782 41.782 0 013.032-.93 15.304 15.304 0 013.169-.492c1.083-.073 2.22.064 3.412.41.072.22.171.429.298.63l.379.601c.144.182.27.365.379.547.108.182.172.373.19.574.216.2.388.42.514.656.144.22.171.52.081.903-.198.145-.406.291-.623.437a8.375 8.375 0 01-.676.41 7.898 7.898 0 00-2.438-.218 49.81 49.81 0 00-2.193.191c-.199-.219-.434-.32-.704-.3-.271 0-.56.045-.867.136-.289.073-.578.155-.866.246a2.1 2.1 0 01-.813.055c-.198.182-.46.31-.785.383-.325.054-.668.1-1.03.136-.017.091 0 .155.055.192.054.036.063.109.027.218.126.164.298.283.514.356l.65.164c.235.055.443.137.623.246a.67.67 0 01.352.465c.325.018.605.11.84.273a2.178 2.178 0 01.948 1.258c.072.237.099.456.08.656.073.183.145.255.218.22.09-.037.19.008.297.136.073.273.235.565.488.875.27.291.478.61.623.957.036.547.063 1.039.08 1.476.037.438-.035.866-.216 1.285a6.823 6.823 0 01-1.327 2.16 10.48 10.48 0 01-1.977 1.696 16.54 16.54 0 01-2.301 1.258c-.813.346-1.616.638-2.41.875a.669.669 0 00-.271 0c-.09.018-.108-.037-.054-.164a1.11 1.11 0 01-.569.273 2.695 2.695 0 01-.677.028c-.235 0-.479-.01-.731-.028a3.039 3.039 0 00-.704.028 9.054 9.054 0 01-.407-.438 2.005 2.005 0 01-.27-.52c-.09-.018-.136-.072-.136-.163.018-.11-.018-.165-.108-.165 0-.073.01-.127.027-.164l.054-.109c.072-.055.1-.091.081-.11 0-.036-.027-.063-.08-.081a.897.897 0 00-.136-.11c-.036-.036-.045-.082-.027-.137a.867.867 0 00.081-.574l-.054-.71a1.94 1.94 0 01.054-.657c.054-.219.208-.4.46-.547.74.073 1.436.037 2.086-.11a9.768 9.768 0 001.868-.6 18.092 18.092 0 001.679-.821c.542-.31 1.065-.593 1.57-.848.055-.182.136-.337.244-.465.127-.127.253-.246.38-.355.126-.128.243-.255.352-.383.108-.146.19-.319.243-.52.018-.072.018-.127 0-.163a.178.178 0 00-.081-.082l-.108-.11c-.036-.036-.054-.091-.054-.164l-.163-.055a.238.238 0 00-.108-.027 9.806 9.806 0 00-1.49-.602 7.158 7.158 0 01-1.327-.546c-.216.145-.433.182-.65.109a9.09 9.09 0 00-.785-.219 20.04 20.04 0 01-2.166-.218 8.253 8.253 0 01-1.95-.575.963.963 0 00-.135-.273c-.055-.091-.18-.119-.38-.082a3.664 3.664 0 00-.406-.492 4.035 4.035 0 01-.352-.547zm17.056 12.66a1.796 1.796 0 01-.596-.63 3.381 3.381 0 01-.379-.82 5.113 5.113 0 01-.243-.902 36.55 36.55 0 00-.217-.93c0-.255.054-.437.163-.546.108-.128.225-.246.352-.356a10.05 10.05 0 001.164-.109c.343-.055.677-.11 1.002-.164.325-.055.65-.1.975-.137a6.381 6.381 0 011.056-.082c.27-.565.523-1.103.758-1.613.235-.529.46-1.03.677-1.504.108-.456.244-.875.406-1.258.18-.401.353-.775.515-1.121.162-.365.307-.72.433-1.066.127-.365.208-.748.244-1.149.216-.638.406-1.221.569-1.75.18-.547.316-1.194.406-1.941a18.01 18.01 0 00-1.652.328c-.415.091-.713.182-.894.273-.36-.018-.65-.09-.866-.218a1.707 1.707 0 01-.488-.465 2.93 2.93 0 01-.325-.63 8.39 8.39 0 00-.325-.737c.073-.165.09-.401.055-.711-.037-.328-.145-.565-.325-.711.144-.037.252-.155.325-.356.072-.219.08-.383.027-.492.306-.091.631-.146.975-.164.343-.036.676-.064 1.001-.082.343-.037.668-.073.975-.11.307-.054.569-.154.786-.3.938-.037 1.913-.073 2.924-.11a103.76 103.76 0 002.844-.136c.325.11.695.164 1.11.164.433 0 .858.027 1.273.082.433.055.812.173 1.137.355.343.183.578.502.704.957.271.037.47.11.596.219a.69.69 0 01.27.41c.037.146.046.32.028.52v.547c-.289.218-.66.4-1.11.546-.434.128-.912.238-1.436.328-.523.074-1.074.128-1.652.165l-1.651.054c-.09.602-.253 1.313-.488 2.133a91.188 91.188 0 01-.677 2.38 157.43 157.43 0 00-.623 2.077c-.162.602-.234.994-.216 1.176l-.46 1.066c-.11.292-.218.566-.326.82-.09.256-.19.511-.298.766-.09.237-.207.51-.352.82h1.842c.036.201.117.338.244.41.126.074.261.138.406.192.144.055.27.128.379.219.126.073.19.2.19.383.342.09.559.228.65.41.09.182.108.383.053.602-.036.2-.126.41-.27.628-.127.22-.253.41-.38.575-.162-.037-.315.009-.46.136-.144.11-.28.237-.406.383a6.261 6.261 0 00-1.544-.027c-.505.054-.975.1-1.408.136-.09.019-.126.073-.108.165.018.073 0 .127-.054.164a4.632 4.632 0 00-1.733-.22 10.78 10.78 0 00-1.788.274c-.595.128-1.21.265-1.841.41a8.578 8.578 0 01-1.923.274zm19.71-2.898a.882.882 0 00-.325.574 8.492 8.492 0 01-.135.656c-.054.219-.154.41-.298.574-.126.146-.361.21-.704.192-.072.09-.09.145-.054.164.054.018.099.1.135.246-.253-.037-.433-.019-.541.054a1.188 1.188 0 01-.407.164 2.27 2.27 0 01-1.056-.683 7.952 7.952 0 01-.731-1.121 14.93 14.93 0 01-.542-1.23 7.929 7.929 0 00-.46-1.094c0-.073.036-.1.108-.082H78a2.136 2.136 0 01-.19-.602 1.304 1.304 0 00-.27-.574c.523-1.13 1.083-2.306 1.678-3.528.596-1.24 1.192-2.488 1.788-3.746a363.849 363.849 0 001.814-3.828c.614-1.294 1.2-2.561 1.76-3.8.506.182.993.4 1.463.656.487.237.93.52 1.326.847.398.328.732.711 1.002 1.149.29.419.479.902.57 1.449-.037.11-.082.146-.136.11-.054-.037-.1-.019-.136.054.09.11.136.191.136.246.018.037.018.082 0 .137a.384.384 0 00-.027.164c0 .073.045.173.135.3-.09-.018-.153 0-.19.055-.036.037-.099.037-.19 0 .091.256.118.456.082.602-.036.146-.09.282-.162.41-.073.11-.136.237-.19.383-.036.127-.018.31.054.547-.072 0-.126.018-.162.055a.319.319 0 00-.054.081.43.43 0 01-.082.11c-.018.018-.063.018-.135 0 .054.474.072.957.054 1.45l-.054 1.476a21.589 21.589 0 000 1.53c.018.53.09 1.077.217 1.642a5.488 5.488 0 001.868-1.778 9.079 9.079 0 001.138-2.434c.288-.893.505-1.85.65-2.87.162-1.021.324-2.06.487-3.118.198-.2.352-.446.46-.738a5.28 5.28 0 00.298-.902c.09-.31.172-.62.244-.93.09-.328.207-.62.352-.875.325.036.596.137.812.3.235.147.452.32.65.52.199.183.406.356.623.52.217.164.487.273.812.328.253.365.488.72.704 1.066.217.328.362.702.434 1.121-.108.183-.19.383-.244.602a8.982 8.982 0 01-.19.656 2.21 2.21 0 01-.243.602 1.408 1.408 0 01-.46.465 12.315 12.315 0 01-.244 1.531c-.109.474-.208.939-.298 1.395-.09.455-.172.93-.244 1.421-.072.493-.1 1.03-.081 1.614a43.798 43.798 0 01-.542 1.64 10 10 0 00-.433 1.532c-.343.273-.614.61-.812 1.011-.199.401-.407.802-.623 1.203-.09.073-.145.091-.163.055-.018-.055-.099-.091-.243-.11.018.165-.019.274-.109.329-.072.036-.063.164.027.383a2.866 2.866 0 00-.812.574 5.593 5.593 0 01-.785.656c-.271.2-.596.337-.975.41-.361.055-.84-.027-1.436-.246a13.437 13.437 0 01-2.382-2.27c-.705-.856-1.264-1.868-1.68-3.035a.654.654 0 00-.406.356 5.48 5.48 0 00-.243.574c-.073.2-.145.383-.217.547-.072.164-.18.246-.325.246-.036.164-.108.32-.217.465a7.98 7.98 0 00-.27.41c-.09.128-.163.273-.217.438-.036.164-.01.346.081.547zM99.85 26.89c-.036-.237-.081-.383-.135-.438.126-.328.216-.647.27-.957.073-.328.127-.638.163-.93.036-.255.072-.492.108-.71.055-.22.118-.429.19-.63.306-.072.533-.2.677-.382.163-.2.288-.374.379-.52.325-.018.532.028.622.137.109.11.227.292.353.547.09.2.216.42.379.656.162.219.406.392.731.52.055.2.118.392.19.574.072.182.153.373.243.574.163.383.316.784.46 1.203.146.401.227.784.244 1.148-.216.42-.388.903-.514 1.45a12.803 12.803 0 00-.217 1.668c-.017.547 0 1.075.055 1.586.054.51.144.938.27 1.285l.162.437.596-.054a15.59 15.59 0 001.76-.547 9.241 9.241 0 001.463-.766 11.1 11.1 0 001.3-.984c.415-.383.849-.83 1.3-1.34a9.895 9.895 0 001.164-1.723 12.1 12.1 0 00.839-2.023c.236-.693.416-1.386.542-2.078.126-.693.208-1.34.244-1.942.342-.164.532-.428.569-.793l-.081-.355a.487.487 0 01-.082-.246.986.986 0 01.082-.246c.144-.42.451-.73.92-.93.325.219.623.456.893.711.29.255.552.51.786.766.036.492.108.92.217 1.285.108.346.225.683.352 1.011.126.31.235.611.325.903.108.291.18.647.216 1.066a11.97 11.97 0 00-.406 1.559c-.072.474-.144.975-.216 1.504l-.055.3c-.325.566-.65 1.149-.975 1.75a30.211 30.211 0 00-.758 1.532c-.108.11-.208.237-.298.383l-.216.437a4.49 4.49 0 00-.163.273.912.912 0 01-.162.274l-.65-.246-.163.847-.433.11-.325.383c-.416.729-.857 1.34-1.327 1.832-.452.492-.965.93-1.543 1.312a14.48 14.48 0 01-1.924 1.094c-.703.328-1.516.684-2.436 1.066a6.43 6.43 0 00-.948-.082l-.758-.054a9.44 9.44 0 01-.731-.028 20.548 20.548 0 01-.813-.082.729.729 0 00-.298-.355.712.712 0 00-.352-.11 1.85 1.85 0 01-.812-.765 27.174 27.174 0 01-.569-1.094c-.09-.219-.19-.437-.298-.656a3.11 3.11 0 00-.352-.63l.542-.163-.704-.82a1.802 1.802 0 00-.19-.165 1.796 1.796 0 01-.162-.191v-.52a86.06 86.06 0 01-.109-4.128c.018-1.276.19-2.398.515-3.364l.054-.136zm18.898-1.887a1.215 1.215 0 00-.109-.383 5.426 5.426 0 00-.135-.41 6.538 6.538 0 01-.244-.711 3.345 3.345 0 01-.108-.902c.036-.183.081-.31.136-.383a1.11 1.11 0 01.161-.219l.109-.492h.406a3.5 3.5 0 00.434.027h.46c.686 0 1.39-.027 2.112-.082.722-.055 1.462-.118 2.221-.191.83-.11 1.723-.192 2.681-.246.089-.2.144-.329.162-.383a1.83 1.83 0 00.108-.192l.299-.164c.414-.018.703.037.866.165a1.8 1.8 0 01.379.328c.469-.037.947-.082 1.436-.137a143.9 143.9 0 011.516-.219c.722-.091 1.453-.182 2.193-.273a17.729 17.729 0 012.166-.137 11.088 11.088 0 011.653.109l.325.246c.072.128.162.247.27.356.108.11.234.219.38.328.27.219.532.492.785.82.271.328.369.811.297 1.45l-.135.273a1.737 1.737 0 01-.271.219l-.27.355h-.299c-.18 0-.316.018-.406.055a1.68 1.68 0 00-.325.11 3.06 3.06 0 01-.244.109c-.09.018-.189.045-.297.082a5.399 5.399 0 00-.46-.028h-.38c-.541 0-1.128.037-1.76.11-.632.073-1.246.155-1.841.246-.434.055-.849.11-1.246.164-.397.036-.759.073-1.084.11-.179.473-.342.893-.487 1.257-.144.365-.298.73-.46 1.094a20.02 20.02 0 00-.46 1.12 12.18 12.18 0 00-.406 1.231 7.405 7.405 0 00-.543.957 4.734 4.734 0 00-.351 1.012c-.271.31-.469.647-.596 1.012a18.34 18.34 0 01-.298.93l-.108.41a1.364 1.364 0 00-.244.3.678.678 0 01-.135.247 4.315 4.315 0 01-.217.683 4.795 4.795 0 00-.108.301c-.037.091-.046.164-.028.219-.035.2-.09.355-.162.465 0 .109-.009.218-.027.328l-.054.328a3.557 3.557 0 00-.082.355.47.47 0 00.028.274l.162.218c.054.073.1.165.135.274a.35.35 0 00.136.082.348.348 0 01.136.082c.144.127.279.2.406.219l.271.328c.108.656.008 1.167-.299 1.531-.325.42-.866.629-1.625.629l-.378-.027a1.567 1.567 0 01-.217-.246 10.14 10.14 0 01-.406-.192.616.616 0 01-.298-.246.184.184 0 00-.135-.055.343.343 0 01-.136-.082 1.63 1.63 0 01-.433-.191l-.298-.164c.018-.182.027-.31.027-.383-.145-.2-.261-.42-.352-.656a8.819 8.819 0 01-.19-.738 9.534 9.534 0 00-.162-.547c-.037-.164-.1-.31-.19-.438-.036-1.276.081-2.342.352-3.2a35.55 35.55 0 01.894-2.542c.181-.438.352-.884.515-1.34.162-.456.307-.92.433-1.394l.298-.301c.126-.11.207-.173.244-.192 0-.236.045-.464.135-.683.09-.237.19-.474.297-.711.073-.146.137-.292.19-.438a1.41 1.41 0 00.135-.382c-.125 0-.243.009-.351.027-.09 0-.19.01-.298.027a2.982 2.982 0 01-.677.082 1.62 1.62 0 01-.352-.027 1.337 1.337 0 01-.406.137h-1.029a1.32 1.32 0 00-.515.082h-1.381a5.01 5.01 0 01-.488-.028 2.021 2.021 0 01-.568-.219l-.19-.218c-.108-.2-.207-.31-.298-.328l-.297-.082v-.301zm17.571 3.09c.053-.274.089-.492.107-.657.018-.182-.045-.373-.19-.574.073-.291.127-.52.164-.683.054-.164.063-.392.026-.684.163-.474.406-.875.731-1.203a5.333 5.333 0 011.11-.82 6.461 6.461 0 011.246-.575c.434-.164.84-.3 1.219-.41 0-.073-.037-.11-.109-.11-.072 0-.089-.045-.053-.136a19.365 19.365 0 002.924-.793 41.688 41.688 0 013.034-.93 15.284 15.284 0 013.167-.492c1.084-.073 2.221.064 3.412.41.072.22.172.429.299.63l.379.601c.144.182.271.365.378.547.109.182.172.373.19.574.217.2.388.42.515.656.144.22.172.52.081.903-.199.145-.406.291-.623.437a8.374 8.374 0 01-.676.41 7.902 7.902 0 00-2.438-.218 48.83 48.83 0 00-2.193.191c-.199-.219-.434-.32-.705-.3-.27 0-.56.045-.866.136-.289.073-.578.155-.867.246a2.085 2.085 0 01-.812.055c-.199.182-.46.31-.785.383-.325.054-.668.1-1.03.136-.017.091 0 .155.055.192.054.036.063.109.027.218.126.164.298.283.514.356l.65.164c.235.055.442.137.623.246a.669.669 0 01.352.465c.325.018.604.11.84.273a2.186 2.186 0 01.948 1.258c.072.237.099.456.081.656.072.183.144.255.216.22.09-.037.19.008.299.136.072.273.234.565.486.875.271.291.479.61.624.957.035.547.063 1.039.081 1.476.035.438-.037.866-.216 1.285a6.842 6.842 0 01-1.328 2.16 10.497 10.497 0 01-1.977 1.696 16.54 16.54 0 01-2.301 1.258c-.813.346-1.616.638-2.411.875a.664.664 0 00-.27 0c-.091.018-.109-.037-.055-.164a1.104 1.104 0 01-.569.273 2.684 2.684 0 01-.676.028c-.235 0-.478-.01-.731-.028a3.048 3.048 0 00-.705.028 9.583 9.583 0 01-.406-.438 2.007 2.007 0 01-.27-.52c-.091-.018-.135-.072-.135-.163.017-.11-.019-.165-.109-.165 0-.073.009-.127.026-.164l.055-.109c.072-.055.1-.091.081-.11 0-.036-.027-.063-.081-.081a.851.851 0 00-.136-.11c-.035-.036-.045-.082-.026-.137a.87.87 0 00.081-.574l-.055-.71c-.017-.238 0-.456.055-.657.054-.219.207-.4.46-.547.74.073 1.435.037 2.085-.11a9.729 9.729 0 001.868-.6 18.027 18.027 0 001.68-.821 33.77 33.77 0 011.57-.848c.055-.182.136-.337.244-.465.127-.127.253-.246.38-.355a6.78 6.78 0 00.351-.383c.109-.146.19-.319.244-.52.018-.072.018-.127 0-.163a.178.178 0 00-.081-.082l-.108-.11c-.037-.036-.055-.091-.055-.164l-.162-.055a.24.24 0 00-.108-.027 9.858 9.858 0 00-1.49-.602 7.145 7.145 0 01-1.327-.546c-.216.145-.433.182-.65.109a9.01 9.01 0 00-.785-.219 19.785 19.785 0 01-2.166-.218 8.255 8.255 0 01-1.95-.575.963.963 0 00-.136-.273c-.054-.091-.18-.119-.379-.082a3.662 3.662 0 00-.406-.492 3.946 3.946 0 01-.351-.547zM2.463 37.589a4.903 4.903 0 01-1.268-1.49 9.901 9.901 0 01-.766-1.896c-.176-.669-.3-1.355-.37-2.06a20.634 20.634 0 01-.052-2.058c.158-.488.352-.93.58-1.328.23-.415.485-.804.767-1.165.281-.379.572-.731.871-1.056.317-.343.625-.687.925-1.03.105 0 .202.027.29.081.07-.198.176-.37.317-.514.14-.145.29-.271.449-.38a8.07 8.07 0 01.475-.352c.159-.126.29-.27.397-.433.44-.109.827-.262 1.162-.46a9.638 9.638 0 001.003-.65c.317-.236.643-.452.977-.651a4.255 4.255 0 011.163-.46c.158-.181.352-.335.58-.461.247-.127.485-.244.714-.352.246-.109.475-.226.686-.352.23-.127.414-.298.555-.515.106.144.255.198.449.162a9.61 9.61 0 00.528-.162.325.325 0 01.264.054c.07.054.132.117.185.19.07.054.123.09.159.108.053.018.105-.036.158-.163.141.018.176.082.106.19l-.106.217c.176-.036.317 0 .423.108.123.09.308.154.554.19.088.09.115.162.08.216a.704.704 0 00-.08.271c.634.2 1.04.515 1.215.949.176.415.194.858.053 1.327-.14.452-.405.876-.792 1.273-.37.38-.784.633-1.242.759-.545.144-1.056.289-1.531.433-.458.145-.907.307-1.347.488a7.9 7.9 0 00-1.215.65 4.42 4.42 0 00-.977.84 5.39 5.39 0 00-1.347.596 9.982 9.982 0 00-1.11.84c-.334.307-.66.632-.977.975l-.95.975c0 .307-.054.542-.16.705-.105.162-.22.325-.343.487.036.344.106.642.212.894.123.235.246.479.37.732 1.408.433 2.896.704 4.463.813a104.3 104.3 0 004.701.162c.159.217.335.425.528.623.212.18.397.37.555.57.176.198.308.433.396.704.106.252.132.56.08.92-.3.308-.626.606-.978.895l-1.056.812a3.107 3.107 0 01-.581 0 8.118 8.118 0 00-.687-.027c-.229 0-.467.018-.713.054a2.088 2.088 0 00-.66.163 20.571 20.571 0 01-3.407-.406 27.77 27.77 0 01-3.223-.894 7.054 7.054 0 00-.607-.65c-.211-.217-.493-.37-.845-.461z" fill="#FEB302"/><path d="M39.63 17.13c-.582.349-1.826.855-2.819 1.155-2.354.699-4.061 1.519-5.876 2.817-.945.684-2.617 2.114-2.935 2.506-.01.018.197.194.458.395l.482.375.266-.232c.426-.365.914-1.02 1.148-1.52.116-.256.22-.466.234-.47.066-.014-.066.477-.244.912-.196.484-.65 1.131-.973 1.39-.193.149-.184.191.142.52.227.238.67.837 1.02 1.39.141.229.21.154.445-.48.2-.537.535-.874 1.351-1.372.787-.47 1.064-.823 2.115-2.662 1.28-2.235 1.586-2.751 1.397-2.306-.325.744-1.372 2.821-1.83 3.625-.506.882-.827 1.223-1.586 1.693-.63.389-.844.602-1.031.987-.087.19-.236.493-.333.67l-.164.329.292.253c.493.432 1.452 1.13 1.696 1.245l.23.112.308-.546c.37-.658.961-2.02 1.462-3.385.432-1.186.456-1.243.322-.691-.316 1.285-1.128 3.502-1.568 4.295l-.298.529.663.385.672.391.132-.209c.198-.298.72-1.377.97-2.007.298-.745.51-1.672.55-2.389.057-1.196.481-2.67 1.427-5.015.657-1.63.629-1.49-.158.818-.59 1.72-.884 2.978-.965 4.158-.038.515-.117 1.136-.18 1.381-.16.662-.603 1.798-1.029 2.662-.346.704-.363.76-.235.85.207.139 1.464.694 1.537.678.033-.008.383-.482.775-1.062.478-.705.756-1.192.854-1.505.234-.716.386-1.815.498-3.538.117-1.806.234-3.017.282-2.983.022.01.02.107.012.206-.015.1-.044.94-.063 1.868-.055 2.834-.221 4.212-.616 5.024-.094.193-.45.773-.794 1.283l-.632.94.451.292.452.292.116-.22.123-.221-.06.26-.06.258.43.364c.233.2.453.366.482.375.193.03.757-2.354.912-3.826.189-1.83.146-3.324-.165-5.971-.228-1.944-.216-2.52.066-3.664.174-.702.215-1.59.08-1.537-.034.008-.133.068-.238.129zm-6.428 3.993c-.106.345-.938 1.643-1.533 2.389-.271.344-.71.898-.975 1.241-.273.338-.493.59-.5.553-.023-.114.878-1.45 1.824-2.7.527-.7 1.018-1.37 1.084-1.497.164-.29.192-.29.1.014zm5.37.008c-.324 1.667-.432 2.317-.554 3.358-.063.528-.123.891-.145.814-.048-.242.036-1.475.157-2.24.113-.762.672-3.07.727-3.038.017.018-.066.513-.185 1.106z" fill="#BC5D1D"/><path d="M26.414 23.238c-1.456 1.046-3.469 4.487-4.058 6.934-.784 3.233-.232 7.371 1.255 9.464.399.562.808.86 1.214.888.482.027.912.177 1.886.67 1.34.68 2.106.86 3.404.793 1.182-.056 3.29-.635 4.718-1.293 2.893-1.332 4.645-3.86 5.107-7.373l.06-.477-.202-.277c-.53-.728-2.289-2.033-3.403-2.524-1.831-.817-4.27-2.329-5.317-3.3a5.028 5.028 0 01-.668-.823c-.892-1.388-2.072-2.456-3.119-2.82-.444-.155-.484-.146-.877.137zm4.497 4.652c.832.727 1.987 1.531 2.788 1.928.342.17 1.084.483 1.659.69 1.225.452 2.144.912 2.74 1.37.668.509.709.642.075.238-.667-.427-1.496-.788-2.703-1.183a15.547 15.547 0 01-1.479-.56c-.777-.349-2.095-1.266-2.733-1.902-.488-.482-1.082-1.143-1.035-1.153.014-.003.324.257.688.572zm-7.091 1.384c-.155.597-.304 2.046-.312 2.999-.027 2.343.404 4.77 1.083 6.079.404.763.844 1.039 2.134 1.318a6.449 6.449 0 011.305.426c.614.304 1.03.383 1.979.394.976.006 3.29-.492 4.19-.904.773-.354 1.701-.907 2.272-1.357.97-.765 2.06-2.141 2.653-3.36.219-.454.147-.214-.11.361-.31.707-1.073 1.852-1.617 2.431-1.604 1.716-3.914 2.842-6.399 3.116-1.42.162-2.38.063-3.079-.319-.173-.096-.804-.306-1.403-.464-.926-.248-1.147-.334-1.504-.613-.677-.515-1.043-1.339-1.4-3.139-.44-2.23-.413-4.716.08-6.73.088-.334.166-.614.186-.618.02-.005-.009.167-.058.38zm14.072 6.103c-.95 1.585-2.488 2.92-4.185 3.63-.856.357-2.261.628-3.048.588l-.532-.03.412-.048c.825-.08 2.67-.548 3.22-.814 1.546-.73 3.145-2.077 4.138-3.477.322-.462.32-.401-.005.151zM28.35 50.52a1216.942 1216.942 0 01-.027 1.85v1.508c.005.292.01.593.013.903.005.31.011.608.02.896.009.285.02.523.032.716.044.008.1.016.17.025.07.004.141.01.215.018l.228.013h.19c.238 0 .48-.015.723-.044.248-.03.484-.083.71-.163a2.73 2.73 0 00.646-.339c.2-.142.374-.324.521-.545a2.64 2.64 0 00.352-.81c.087-.317.13-.692.13-1.122 0-.95-.236-1.681-.71-2.196-.47-.514-1.171-.771-2.105-.771a7.133 7.133 0 00-.594.025c-.1.004-.195.01-.286.019a7.286 7.286 0 01-.229.019zM27 50.064c.104.004.202.006.293.006.079.004.155.006.229.006h.162c.061 0 .17-.002.326-.006l.528-.013c.2-.008.409-.014.626-.018.222-.009.426-.013.613-.013.508 0 .993.056 1.454.17.46.112.865.298 1.212.558.352.255.63.591.835 1.01.204.413.306.926.306 1.536 0 .657-.117 1.213-.352 1.669a3.107 3.107 0 01-.952 1.116c-.4.285-.864.492-1.395.621a7.17 7.17 0 01-1.669.188c-.139 0-.313-.004-.521-.012A398.973 398.973 0 0027 56.818v-.025c.03-.088.056-.2.078-.339a4.27 4.27 0 00.059-.508c.017-.205.03-.447.039-.727.009-.28.013-.609.013-.985v-1.58c0-.377-.004-.705-.013-.986a13.7 13.7 0 00-.04-.727 4.285 4.285 0 00-.058-.515 2.02 2.02 0 00-.078-.338v-.025zm11.492 3.48c.087.013.174.024.261.032a6 6 0 00.26.007c.544 0 .955-.14 1.233-.42.282-.28.424-.701.424-1.261 0-.46-.113-.824-.34-1.092-.221-.267-.55-.401-.984-.401a3.4 3.4 0 00-.371.018 3.066 3.066 0 00-.267.032 3.222 3.222 0 00-.216.05v3.036zm.998.409a3.29 3.29 0 01-.261.025h-.254a4.405 4.405 0 01-.483-.025v.307c0 .372.005.698.013.978.009.276.02.515.033.715.017.201.037.37.059.509.021.133.047.244.078.332v.025h-1.506v-.025c.03-.088.056-.2.078-.339a4.31 4.31 0 00.059-.508c.017-.205.03-.447.039-.727.009-.28.013-.609.013-.985v-1.58c0-.377-.004-.703-.013-.98a13.51 13.51 0 00-.04-.72 4.324 4.324 0 00-.058-.515 2.03 2.03 0 00-.078-.339v-.025a42.672 42.672 0 00.437.025h.247c.14 0 .346-.012.62-.037.273-.025.595-.038.965-.038.373 0 .712.044 1.017.132.308.088.571.213.788.376a1.675 1.675 0 01.691 1.38c0 .226-.032.433-.098.621a1.775 1.775 0 01-.69.89c-.161.114-.34.212-.535.296l1.362 1.85c.118.15.235.295.352.433.122.138.237.261.346.37.108.108.21.2.306.276.096.07.176.119.242.144v.025H41.51c0-.038-.029-.102-.085-.194a2.546 2.546 0 00-.19-.295 5.395 5.395 0 00-.214-.301l-.157-.213-1.375-1.863zm6.785-1.299c0-.376-.004-.702-.013-.978-.008-.28-.021-.52-.039-.722a4.321 4.321 0 00-.059-.514 2.01 2.01 0 00-.078-.339v-.025H47.6v.025c-.03.088-.059.201-.085.339-.022.138-.041.31-.059.514-.013.201-.024.441-.032.722a31.63 31.63 0 00-.013.978v1.58c0 .377.004.705.013.986.008.28.02.522.032.727.018.2.037.37.059.508.026.138.054.251.085.34v.024h-1.513v-.025c.03-.088.057-.2.078-.339.027-.138.046-.307.06-.508.017-.205.03-.447.038-.727.009-.28.013-.609.013-.985v-1.58zm5.339-2.578h1.31l1.245-.012c.383-.009.71-.017.985-.025.278-.009.46-.021.547-.038l-.254.677a5.346 5.346 0 00-.873-.138 5.673 5.673 0 00-.94-.018 8.06 8.06 0 00-.325.018l-.372.026v2.477c.352-.004.67-.013.952-.025.282-.013.524-.03.723-.05.235-.017.442-.04.62-.07l-.157.747c-.239-.029-.48-.054-.723-.075a14.1 14.1 0 00-.691-.05 10.89 10.89 0 00-.724-.025v2.847c.404 0 .776-.014 1.115-.044.339-.033.634-.069.886-.106.296-.046.563-.098.802-.157l-.15.822a38.17 38.17 0 00-.32-.019l-.455-.013c-.157 0-.305-.002-.444-.006h-2.757v-.025c.03-.088.056-.2.078-.339a4.29 4.29 0 00.059-.508c.017-.205.03-.447.039-.727.008-.28.013-.609.013-.985v-1.58c0-.377-.005-.703-.013-.98a13.2 13.2 0 00-.04-.72 4.303 4.303 0 00-.058-.515 2.02 2.02 0 00-.078-.339v-.025zm9.132.446a1922.68 1922.68 0 01-.026 1.85v1.506l.013.903c.005.31.011.608.02.896.008.285.02.523.032.716.044.008.1.016.17.025.07.004.141.01.215.018l.228.013h.19c.238 0 .48-.015.723-.044.248-.03.484-.083.71-.163a2.73 2.73 0 00.646-.339c.2-.142.373-.324.521-.545.152-.226.27-.496.352-.81.087-.317.13-.692.13-1.122 0-.95-.236-1.681-.71-2.196-.47-.514-1.171-.771-2.105-.771a7.141 7.141 0 00-.594.025c-.1.004-.195.01-.287.019a7.261 7.261 0 01-.228.019zm-1.35-.458c.105.004.203.006.294.006.079.004.154.006.228.006h.163c.061 0 .17-.002.326-.006l.528-.013c.2-.008.409-.014.626-.018.222-.009.426-.013.613-.013.508 0 .993.056 1.454.17.46.112.865.298 1.212.558.352.255.63.591.835 1.01.204.413.306.926.306 1.536 0 .657-.117 1.213-.352 1.669a3.11 3.11 0 01-.952 1.116c-.4.285-.865.492-1.395.621a7.168 7.168 0 01-1.669.188c-.139 0-.313-.004-.521-.012a394.439 394.439 0 00-1.695-.063v-.025c.03-.088.056-.2.078-.339a4.31 4.31 0 00.059-.508c.017-.205.03-.447.039-.727a32.6 32.6 0 00.013-.985v-1.58a34.8 34.8 0 00-.013-.986c-.009-.28-.022-.522-.04-.727a4.324 4.324 0 00-.058-.515 2.02 2.02 0 00-.078-.338v-.025zm17.699 4.17c0 .377.004.705.013.986.008.28.02.522.032.727.018.2.037.37.059.508s.048.251.078.34v.024h-1.506v-.025c.03-.088.057-.2.079-.339a4.29 4.29 0 00.058-.508c.018-.205.03-.447.04-.727.008-.28.012-.609.012-.985v-1.58c0-.377-.004-.703-.013-.98a12.03 12.03 0 00-.039-.72 4.303 4.303 0 00-.058-.515 2.01 2.01 0 00-.079-.339v-.025h1.767a517.428 517.428 0 001.565-.025l.554-.019c.152-.008.258-.018.319-.031l-.267.677a4.747 4.747 0 00-.867-.138 5.78 5.78 0 00-.959-.018 9.95 9.95 0 00-.358.018l-.43.026v2.283c.352-.005.673-.013.965-.025.29-.017.543-.034.756-.05.247-.017.469-.038.665-.063l-.144.752a45.117 45.117 0 00-.776-.081c-.221-.021-.465-.04-.73-.057-.26-.016-.506-.025-.736-.025v.935zm7.47-.69c.087.013.174.024.26.032.092.004.179.007.261.007.544 0 .954-.14 1.232-.42.283-.28.424-.701.424-1.261 0-.46-.113-.824-.339-1.092-.222-.267-.55-.401-.984-.401-.14 0-.263.006-.372.018a3.067 3.067 0 00-.267.032 3.218 3.218 0 00-.215.05v3.036zm.997.409a3.31 3.31 0 01-.26.025h-.255a4.4 4.4 0 01-.482-.025v.307c0 .372.004.698.013.978.008.276.02.515.032.715.018.201.037.37.06.509.02.133.047.244.077.332v.025h-1.505v-.025c.03-.088.056-.2.078-.339a4.31 4.31 0 00.058-.508c.018-.205.03-.447.04-.727a32.6 32.6 0 00.012-.985v-1.58c0-.377-.004-.703-.013-.98a12.03 12.03 0 00-.039-.72 4.324 4.324 0 00-.058-.515 2.02 2.02 0 00-.078-.339v-.025a42.055 42.055 0 00.436.025h.248a7.4 7.4 0 00.62-.037c.273-.025.595-.038.964-.038.374 0 .713.044 1.017.132.309.088.572.213.789.376a1.675 1.675 0 01.691 1.38c0 .226-.033.433-.098.621a1.772 1.772 0 01-.691.89 2.86 2.86 0 01-.535.296l1.363 1.85c.117.15.235.295.352.433.121.138.237.261.345.37.11.108.211.2.307.276.095.07.176.119.241.144v.025h-1.708c0-.038-.028-.102-.085-.194a2.533 2.533 0 00-.189-.295 5.395 5.395 0 00-.215-.301l-.156-.213-1.376-1.863zm11.91-1.324c0-.372-.002-.696-.007-.972a14.838 14.838 0 00-.026-.715 8.086 8.086 0 00-.046-.502 2.156 2.156 0 00-.065-.339v-.025h.959v.025a2.143 2.143 0 00-.066.339 8.56 8.56 0 00-.045.514c-.013.201-.022.441-.026.722-.005.276-.007.602-.007.978v1.8c0 .452-.074.837-.222 1.154a2.08 2.08 0 01-.6.785 2.48 2.48 0 01-.918.439 4.39 4.39 0 01-1.16.144 4.85 4.85 0 01-1.187-.138 2.646 2.646 0 01-.952-.427 2.104 2.104 0 01-.632-.765c-.152-.314-.228-.694-.228-1.141v-1.85c0-.377-.005-.703-.013-.98-.01-.28-.022-.52-.04-.72a7.407 7.407 0 00-.058-.515 2.01 2.01 0 00-.078-.339v-.025h1.505v.025c-.03.088-.056.201-.078.339a6.946 6.946 0 00-.058.502c-.014.2-.024.439-.033.715-.009.276-.013.6-.013.972v1.876c0 .372.058.68.176.922.117.238.272.428.463.57.191.143.408.243.652.301a3.473 3.473 0 001.505.001 1.77 1.77 0 00.659-.302 1.47 1.47 0 00.463-.57c.117-.243.176-.55.176-.922v-1.876zm4.954.025c0-.376-.004-.702-.013-.978-.009-.28-.023-.52-.039-.722a4.778 4.778 0 00-.059-.514 2.207 2.207 0 00-.078-.339v-.025h1.512v.025c-.03.088-.059.201-.085.339-.022.138-.041.31-.059.514a30.712 30.712 0 00-.045 1.7v1.58a31.33 31.33 0 00.045 1.713c.018.2.037.37.059.508.026.138.055.251.085.34v.024h-1.512v-.025c.03-.088.055-.2.078-.339.025-.138.045-.307.059-.508.016-.205.03-.447.039-.727.009-.28.013-.609.013-.985v-1.58zm7.13-2.114c-.395 0-.755.017-1.081.05-.322.034-.6.07-.834.107a9.84 9.84 0 00-.731.15l.131-.808c.064.008.171.014.319.018l.463.013c.165 0 .319.002.463.006h3.676c.143-.004.296-.006.457-.006l.463-.013c.147-.004.254-.01.319-.018l.13.809a8.63 8.63 0 00-.717-.15 14.664 14.664 0 00-.835-.108c-.321-.033-.684-.05-1.088-.05v3.695a31.037 31.037 0 00.046 1.712c.017.2.037.37.059.508.021.138.048.251.078.34v.024h-1.507v-.025c.031-.088.057-.2.079-.339.021-.138.041-.307.058-.508.018-.205.031-.447.04-.727.008-.28.012-.609.012-.985V50.54zm10.013.847h-.13a1.97 1.97 0 00-.131-.27 1.414 1.414 0 00-.234-.32 1.19 1.19 0 00-.359-.263 1.097 1.097 0 00-.515-.113c-.151 0-.288.025-.411.075a.825.825 0 00-.488.495 1.031 1.031 0 00-.066.371c0 .218.068.425.203.621.139.197.31.393.515.59.203.192.426.386.664.583.239.197.461.401.665.615.205.213.374.439.509.677.139.238.209.494.209.765 0 .201-.04.408-.118.621a1.52 1.52 0 01-.365.577 1.928 1.928 0 01-.652.42c-.265.114-.586.17-.964.17a3.46 3.46 0 01-.6-.05 4.306 4.306 0 01-.522-.126 3.686 3.686 0 01-.424-.15 3.779 3.779 0 01-.306-.163l.117-1.186h.137c.043.147.107.293.189.44.087.146.191.28.313.4.127.118.272.214.437.29.169.07.363.106.581.106.151 0 .295-.023.429-.07.135-.05.25-.118.346-.206a.934.934 0 00.235-.32c.057-.13.084-.274.084-.433a1.15 1.15 0 00-.117-.52 1.999 1.999 0 00-.313-.465 3.833 3.833 0 00-.443-.432 27.875 27.875 0 00-.502-.42 16.435 16.435 0 01-.508-.433 3.827 3.827 0 01-.437-.483 2.389 2.389 0 01-.313-.546 1.717 1.717 0 01-.118-.646c0-.247.055-.468.164-.665.108-.197.251-.362.429-.495.179-.139.383-.243.613-.314.23-.075.47-.113.718-.113a3.365 3.365 0 01.939.132c.13.033.242.069.338.106l.235.082-.033 1.066z" fill="#BC5D1D"/><path d="M6 15.94V4h140v12M6 43v10h16" stroke="#FEB302" stroke-opacity=".7" stroke-width="7" stroke-linecap="round"/><path d="M147 44v9h-22" stroke="#FEB302" stroke-opacity=".7" stroke-width="7"/></svg>