<svg width="1126" height="404" fill="none" xmlns="http://www.w3.org/2000/svg"><path d="M369.39 171.012c.35-1.755.584-3.159.701-4.212.117-1.17-.293-2.399-1.228-3.686.468-1.872.819-3.334 1.052-4.387.351-1.053.41-2.516.176-4.388 1.052-3.042 2.629-5.616 4.733-7.722 2.221-2.106 4.617-3.861 7.189-5.265a41.757 41.757 0 018.064-3.686c2.805-1.053 5.435-1.931 7.89-2.632 0-.468-.234-.703-.702-.703-.467 0-.584-.292-.35-.877 6.311-1.17 12.623-2.866 18.934-5.09a271.912 271.912 0 0119.636-5.966 99.84 99.84 0 0120.513-3.16c7.013-.468 14.376.41 22.09 2.633a18.276 18.276 0 001.928 4.036l2.455 3.862a31.89 31.89 0 012.454 3.509c.702 1.171 1.111 2.399 1.228 3.686 1.402 1.287 2.513 2.691 3.331 4.212.935 1.404 1.11 3.335.526 5.792-1.286.936-2.63 1.872-4.033 2.808a54.58 54.58 0 01-4.382 2.633c-5.26-1.288-10.52-1.756-15.779-1.404-5.26.351-9.994.76-14.201 1.228-1.286-1.404-2.806-2.048-4.559-1.931-1.753 0-3.623.293-5.61.878-1.87.468-3.74.994-5.61 1.579-1.87.468-3.624.586-5.26.351-1.286 1.171-2.98 1.989-5.084 2.457-2.104.351-4.324.644-6.662.878-.117.585 0 .994.351 1.229.35.233.408.701.175 1.404.818 1.053 1.928 1.813 3.331 2.281l4.208 1.053c1.519.351 2.863.877 4.032 1.58 1.169.585 1.929 1.579 2.279 2.983 2.104.117 3.915.702 5.435 1.755a13.838 13.838 0 013.857 3.511 13.932 13.932 0 012.279 4.562c.468 1.521.643 2.925.526 4.213.468 1.169.935 1.637 1.403 1.404.584-.235 1.227.058 1.928.877.468 1.755 1.52 3.627 3.156 5.616 1.753 1.872 3.097 3.919 4.032 6.143.234 3.51.41 6.669.526 9.477.234 2.808-.233 5.558-1.402 8.248a43.731 43.731 0 01-8.591 13.865c-3.74 4.096-8.006 7.722-12.798 10.882a106.937 106.937 0 01-14.903 8.072c-5.259 2.224-10.46 4.096-15.603 5.617-.467-.117-1.052-.117-1.753 0-.585.117-.701-.234-.351-1.053a7.205 7.205 0 01-3.682 1.754c-1.285.235-2.746.293-4.383.177-1.519 0-3.097-.059-4.733-.177a19.849 19.849 0 00-4.559.177 58.227 58.227 0 01-2.629-2.809c-.702-.936-1.286-2.047-1.753-3.334-.585-.117-.877-.468-.877-1.053.117-.703-.117-1.053-.702-1.053 0-.468.059-.819.175-1.053l.352-.702c.467-.352.642-.585.525-.702 0-.235-.175-.41-.525-.527a5.795 5.795 0 00-.877-.702c-.234-.234-.292-.526-.175-.878.584-1.053.759-2.281.525-3.685l-.35-4.563c-.117-1.521 0-2.925.35-4.212.351-1.404 1.345-2.574 2.981-3.511 4.792.469 9.292.235 13.499-.701 4.325-.936 8.358-2.224 12.098-3.861a117.692 117.692 0 0010.87-5.265 222.592 222.592 0 0110.168-5.441c.351-1.17.877-2.165 1.578-2.983a43.69 43.69 0 012.454-2.282 43.3 43.3 0 002.28-2.457c.701-.936 1.227-2.048 1.577-3.335.117-.468.117-.819 0-1.052a1.141 1.141 0 00-.525-.527l-.702-.702c-.233-.234-.35-.585-.35-1.053l-1.052-.352a1.57 1.57 0 00-.701-.175 63.802 63.802 0 00-9.643-3.861c-3.39-1.053-6.253-2.223-8.591-3.51-1.402.936-2.805 1.17-4.207.702-1.403-.468-3.098-.936-5.085-1.404-4.909-.234-9.584-.702-14.026-1.404a53.812 53.812 0 01-12.623-3.685c-.233-.703-.525-1.288-.876-1.756-.351-.584-1.169-.76-2.454-.526a23.544 23.544 0 00-2.631-3.159 25.906 25.906 0 01-2.278-3.51zm110.423 81.258c-1.636-1.053-2.922-2.399-3.857-4.037a21.602 21.602 0 01-2.454-5.265 32.576 32.576 0 01-1.578-5.791 232.677 232.677 0 00-1.403-5.967c0-1.639.351-2.808 1.052-3.511a21.066 21.066 0 012.279-2.281c2.806-.118 5.318-.351 7.539-.702a767.83 767.83 0 006.487-1.053 116.84 116.84 0 016.312-.878c2.103-.351 4.382-.526 6.837-.526a726.854 726.854 0 004.909-10.355 959.54 959.54 0 014.383-9.652c.701-2.925 1.578-5.617 2.63-8.074a501.342 501.342 0 013.331-7.196 105.921 105.921 0 002.805-6.844 30.66 30.66 0 001.578-7.371 408.99 408.99 0 003.682-11.232c1.169-3.511 2.045-7.664 2.629-12.461-4.441.702-8.006 1.404-10.694 2.106-2.688.585-4.617 1.17-5.786 1.755-2.337-.117-4.208-.585-5.61-1.404-1.286-.819-2.338-1.814-3.156-2.983-.818-1.171-1.519-2.516-2.104-4.037a53.279 53.279 0 00-2.104-4.738c.468-1.054.585-2.575.351-4.564-.234-2.106-.935-3.627-2.104-4.563.935-.234 1.637-.994 2.104-2.282.468-1.404.526-2.457.176-3.158 1.987-.586 4.09-.936 6.311-1.054 2.221-.233 4.383-.409 6.487-.526 2.221-.234 4.324-.468 6.311-.702 1.987-.351 3.682-.994 5.085-1.931 6.078-.234 12.389-.468 18.934-.702a676.868 676.868 0 0018.409-.877c2.104.702 4.5 1.053 7.188 1.053 2.805 0 5.552.175 8.241.526 2.804.352 5.259 1.112 7.362 2.282 2.221 1.17 3.741 3.217 4.559 6.142 1.753.235 3.039.703 3.857 1.404.935.703 1.519 1.58 1.754 2.633.233.936.292 2.048.175 3.335v3.51c-1.87 1.404-4.267 2.574-7.189 3.51-2.805.819-5.902 1.521-9.291 2.105-3.39.469-6.955.82-10.695 1.054-3.624.117-7.188.234-10.695.351-.584 3.861-1.636 8.424-3.155 13.689a581.184 581.184 0 01-4.384 15.269c-1.519 4.914-2.863 9.36-4.032 13.338-1.052 3.861-1.519 6.377-1.402 7.547a3509.528 3509.528 0 01-2.981 6.844 122.793 122.793 0 01-2.104 5.265 84.727 84.727 0 01-1.928 4.914c-.584 1.522-1.344 3.276-2.279 5.265h11.921c.234 1.288.76 2.165 1.578 2.634.819.468 1.695.877 2.63 1.227.935.352 1.753.82 2.454 1.405.819.468 1.228 1.287 1.228 2.457 2.221.585 3.623 1.462 4.208 2.633.584 1.169.701 2.457.35 3.861-.233 1.286-.818 2.632-1.753 4.036-.818 1.404-1.636 2.632-2.454 3.686-1.052-.235-2.046.058-2.981.877a17.302 17.302 0 00-2.63 2.457c-3.389-.468-6.721-.527-9.993-.175-3.273.351-6.312.643-9.117.877-.584.117-.818.468-.701 1.053.117.468 0 .819-.351 1.053a30.234 30.234 0 00-11.22-1.404c-3.74.234-7.597.819-11.571 1.755a778.847 778.847 0 00-11.922 2.633 56.029 56.029 0 01-12.448 1.755zm127.605-18.603c-1.168.936-1.87 2.164-2.103 3.685a54.351 54.351 0 01-.877 4.212 8.613 8.613 0 01-1.928 3.686c-.819.936-2.338 1.345-4.559 1.228-.467.585-.584.936-.35 1.053.35.117.642.644.876 1.58-1.636-.234-2.805-.118-3.506.35-.702.468-1.578.82-2.63 1.054a14.715 14.715 0 01-6.838-4.388 50.943 50.943 0 01-4.733-7.195 95.444 95.444 0 01-3.507-7.898c-.935-2.691-1.928-5.031-2.98-7.02 0-.468.233-.644.701-.527h1.052c-.584-1.17-.993-2.457-1.227-3.861-.351-1.521-.935-2.749-1.753-3.685a1245.746 1245.746 0 0110.87-22.641c3.857-7.955 7.714-15.97 11.571-24.043 3.974-8.19 7.889-16.38 11.746-24.571a1422.356 1422.356 0 0011.396-24.395 68.805 68.805 0 019.467 4.212c3.156 1.521 6.019 3.335 8.591 5.441a30.019 30.019 0 016.487 7.371c1.87 2.691 3.097 5.792 3.681 9.302-.233.702-.525.936-.876.702-.351-.234-.643-.117-.877.351.585.702.877 1.228.877 1.579.117.235.117.527 0 .878-.117.234-.176.585-.176 1.053 0 .468.293 1.112.877 1.93-.584-.117-.993 0-1.227.352-.234.233-.643.233-1.227 0 .584 1.637.759 2.925.525 3.861a10.318 10.318 0 01-1.051 2.632 12.034 12.034 0 00-1.227 2.457c-.234.819-.117 1.989.35 3.51-.467 0-.818.117-1.052.351a2.064 2.064 0 00-.35.527 2.753 2.753 0 01-.527.702c-.116.117-.408.117-.876 0a61.26 61.26 0 01.351 9.301c-.117 3.042-.234 6.202-.351 9.478a137.592 137.592 0 000 9.828c.117 3.393.584 6.903 1.403 10.53 5.025-2.925 9.058-6.728 12.096-11.408 3.156-4.68 5.611-9.886 7.364-15.62 1.871-5.733 3.273-11.875 4.208-18.427a3751.834 3751.834 0 003.155-20.008c1.286-1.287 2.28-2.866 2.981-4.738a33.642 33.642 0 001.928-5.792 111.333 111.333 0 001.578-5.967c.585-2.106 1.344-3.978 2.279-5.616 2.104.233 3.857.878 5.261 1.93a23.04 23.04 0 014.207 3.335 55.694 55.694 0 004.032 3.335c1.403 1.053 3.156 1.754 5.26 2.106a173.448 173.448 0 014.558 6.844c1.403 2.106 2.338 4.505 2.805 7.196a14.132 14.132 0 00-1.578 3.861 56.648 56.648 0 01-1.227 4.212 14.1 14.1 0 01-1.578 3.861c-.701 1.17-1.694 2.164-2.98 2.984-.351 3.51-.877 6.786-1.578 9.828a311.383 311.383 0 00-1.928 8.951 184.386 184.386 0 00-1.579 9.125c-.467 3.16-.642 6.611-.525 10.355a277.84 277.84 0 01-3.507 10.531c-1.285 3.51-2.22 6.786-2.805 9.828-2.221 1.755-3.974 3.919-5.259 6.493a244.951 244.951 0 01-4.033 7.722c-.584.468-.935.585-1.051.351-.118-.351-.644-.584-1.579-.701.117 1.053-.117 1.754-.701 2.105-.467.234-.409 1.053.175 2.457a18.548 18.548 0 00-5.259 3.686 36.079 36.079 0 01-5.084 4.212c-1.754 1.287-3.858 2.165-6.312 2.633-2.338.351-5.435-.176-9.292-1.58a86.622 86.622 0 01-15.428-14.567c-4.559-5.499-8.182-11.992-10.87-19.481-1.169.352-2.045 1.112-2.63 2.282a34.908 34.908 0 00-1.577 3.686 55.32 55.32 0 01-1.404 3.51c-.467 1.053-1.168 1.579-2.103 1.579-.234 1.053-.702 2.048-1.403 2.984a51.423 51.423 0 00-1.753 2.633 10.494 10.494 0 00-1.403 2.807c-.233 1.054-.058 2.223.526 3.511zm110.074-70.378c-.234-1.52-.527-2.457-.877-2.808.818-2.106 1.402-4.153 1.756-6.142a63.697 63.697 0 001.048-5.967c.237-1.638.467-3.159.704-4.563.352-1.404.761-2.75 1.228-4.036 1.982-.468 3.447-1.288 4.38-2.458 1.056-1.287 1.867-2.398 2.456-3.334 2.104-.118 3.447.175 4.029.877.704.702 1.465 1.872 2.283 3.51.582 1.287 1.401 2.691 2.456 4.212 1.049 1.404 2.629 2.516 4.733 3.334a34.388 34.388 0 001.228 3.686c.467 1.17.991 2.399 1.572 3.686a115.305 115.305 0 012.981 7.722c.94 2.574 1.464 5.031 1.579 7.371-1.4 2.691-2.513 5.792-3.332 9.302a81.521 81.521 0 00-1.4 10.705c-.115 3.51 0 6.903.352 10.18.352 3.276.934 6.026 1.752 8.248l1.049 2.809 3.856-.352c4.208-1.053 8.007-2.222 11.396-3.51 3.39-1.404 6.55-3.041 9.472-4.914a71.947 71.947 0 008.416-6.318c2.686-2.457 5.494-5.323 8.417-8.599 2.8-3.277 5.314-6.962 7.533-11.057a77.653 77.653 0 005.436-12.988 92.328 92.328 0 003.504-13.337c.819-4.446 1.35-8.6 1.58-12.461 2.219-1.053 3.447-2.75 3.684-5.09l-.524-2.281c-.352-.585-.532-1.112-.532-1.58a6.352 6.352 0 01.532-1.58c.933-2.69 2.922-4.679 5.96-5.967a45.07 45.07 0 015.781 4.563 66.796 66.796 0 015.084 4.915c.237 3.159.704 5.908 1.408 8.248a102.004 102.004 0 002.276 6.494 69.221 69.221 0 012.104 5.791c.704 1.873 1.171 4.154 1.4 6.845-1.163 3.51-2.039 6.844-2.628 10.004-.467 3.042-.933 6.26-1.4 9.653l-.352 1.93a482.628 482.628 0 00-6.312 11.232c-1.989 3.745-3.62 7.02-4.912 9.828a13.899 13.899 0 00-1.925 2.457l-1.4 2.808a30.61 30.61 0 00-1.056 1.756c-.351.818-.703 1.404-1.048 1.754l-4.208-1.579-1.056 5.44-2.8.703-2.105 2.457c-2.692 4.68-5.551 8.6-8.595 11.758-2.923 3.16-6.248 5.967-9.989 8.425-3.627 2.457-7.777 4.796-12.452 7.02-4.553 2.105-9.817 4.387-15.777 6.844-2.334-.351-4.381-.526-6.133-.526l-4.912-.352c-1.637 0-3.217-.058-4.732-.175a134.421 134.421 0 01-5.264-.526c-.467-1.053-1.106-1.814-1.925-2.282-.818-.468-1.579-.702-2.283-.702-2.334-1.17-4.086-2.808-5.257-4.914a182.228 182.228 0 01-3.684-7.02 68.346 68.346 0 00-1.924-4.212 19.922 19.922 0 00-2.281-4.037l3.509-1.053-4.561-5.265c-.35-.351-.76-.702-1.227-1.053a11.461 11.461 0 01-1.052-1.229v-3.334c-.468-9.594-.701-18.428-.701-26.501.117-8.19 1.227-15.386 3.331-21.587l.351-.878zm122.347-12.109c-.122-.936-.351-1.755-.703-2.457a35.972 35.972 0 00-.876-2.632 41.767 41.767 0 01-1.58-4.564c-.467-1.638-.697-3.568-.697-5.792.23-1.169.524-1.989.876-2.457.345-.584.697-1.052 1.049-1.404l.703-3.158h2.629a22.71 22.71 0 002.807.175h2.981c4.438 0 8.998-.175 13.673-.527 4.674-.351 9.464-.76 14.376-1.228 5.379-.702 11.16-1.229 17.357-1.58.582-1.286.933-2.106 1.048-2.457.237-.351.467-.76.704-1.228l1.932-1.053c2.686-.117 4.553.234 5.608 1.053 1.049.702 1.867 1.404 2.456 2.106 3.038-.234 6.133-.527 9.293-.878 3.152-.468 6.427-.936 9.816-1.404 4.675-.585 9.407-1.17 14.197-1.754a115.64 115.64 0 0114.025-.878c1.989 0 3.863.058 5.616.175 1.752.117 3.447.293 5.084.527l2.104 1.58a10.709 10.709 0 001.752 2.281 21.957 21.957 0 002.456 2.106c1.752 1.404 3.447 3.159 5.084 5.265 1.753 2.106 2.392 5.206 1.925 9.302l-.876 1.754a11.37 11.37 0 01-1.752 1.404l-1.753 2.282h-1.931c-1.164 0-2.047.117-2.629.352-.581.116-1.285.35-2.104.701-.467.235-.991.468-1.58.703-.581.116-1.228.292-1.924.526-1.286-.117-2.284-.176-2.98-.176h-2.456c-3.505 0-7.303.235-11.397.703-4.093.468-8.064.994-11.92 1.579-2.808.351-5.494.702-8.065 1.053-2.571.234-4.912.468-7.016.702a607.155 607.155 0 01-3.152 8.073c-.934 2.34-1.932 4.68-2.98 7.02a128.746 128.746 0 00-2.981 7.196c-.933 2.34-1.816 4.972-2.628 7.897-1.407 2.106-2.578 4.154-3.511 6.143-.934 1.872-1.695 4.037-2.277 6.494-1.752 1.988-3.037 4.154-3.856 6.494-.704 2.339-1.343 4.328-1.932 5.967l-.696 2.632c-.819.819-1.35 1.462-1.58 1.93-.115.468-.409.995-.876 1.58a27.128 27.128 0 01-1.408 4.388c-.23.585-.467 1.228-.696 1.93-.237.585-.295 1.053-.18 1.404-.23 1.287-.582 2.281-1.048 2.984 0 .702-.058 1.404-.18 2.106l-.345 2.106c-.237.819-.409 1.58-.531 2.281a3.032 3.032 0 00.18 1.756c.351.468.696.936 1.048 1.404.352.468.646 1.053.876 1.754.237.235.531.41.876.527.352.117.646.293.883.526.934.819 1.81 1.287 2.629 1.404l1.752 2.107c.704 4.211.057 7.488-1.932 9.828-2.104 2.691-5.608 4.036-10.52 4.036l-2.449-.175c-.818-.82-1.285-1.346-1.407-1.579a69.38 69.38 0 01-2.629-1.229c-.703-.234-1.343-.761-1.924-1.58a1.203 1.203 0 00-.876-.351 2.242 2.242 0 01-.884-.526c-1.163-.352-2.104-.761-2.8-1.229l-1.932-1.053c.122-1.17.18-1.989.18-2.457a18.256 18.256 0 01-2.284-4.212 56.884 56.884 0 01-1.228-4.738 61.172 61.172 0 00-1.048-3.51 7.715 7.715 0 00-1.228-2.808c-.237-8.191.524-15.035 2.276-20.535a226.141 226.141 0 015.788-16.321 189.68 189.68 0 003.332-8.6 115.187 115.187 0 002.808-8.951l1.924-1.931c.819-.701 1.343-1.111 1.58-1.228 0-1.52.295-2.983.876-4.387a77.485 77.485 0 011.925-4.564c.474-.936.883-1.871 1.228-2.807.467-.936.761-1.755.876-2.458-.811 0-1.573.059-2.276.176-.582 0-1.228.059-1.925.175-1.522.352-2.987.527-4.388.527-1.048 0-1.809-.059-2.276-.175-.934.468-1.817.76-2.628.877h-6.664c-1.401 0-2.514.175-3.332.527h-8.941c-.934 0-1.989-.059-3.16-.176-1.163-.234-2.391-.702-3.676-1.404l-1.228-1.404c-.704-1.287-1.343-1.989-1.932-2.106l-1.925-.527v-1.93zm113.757 19.832c.344-1.755.581-3.159.696-4.212.115-1.17-.294-2.399-1.228-3.686.467-1.872.819-3.334 1.056-4.387.352-1.053.409-2.516.172-4.388 1.056-3.042 2.628-5.616 4.732-7.722 2.227-2.106 4.618-3.861 7.189-5.265a41.867 41.867 0 018.064-3.686c2.808-1.053 5.436-1.931 7.892-2.632 0-.468-.237-.703-.704-.703-.466 0-.581-.292-.344-.877 6.305-1.17 12.617-2.866 18.929-5.09a272.476 272.476 0 0119.64-5.966 99.717 99.717 0 0120.51-3.16c7.02-.468 14.38.41 22.09 2.633a18.284 18.284 0 001.93 4.036l2.46 3.862c.93 1.169 1.75 2.34 2.45 3.509.7 1.171 1.11 2.399 1.22 3.686 1.41 1.287 2.52 2.691 3.34 4.212.93 1.404 1.11 3.335.52 5.792a127.87 127.87 0 01-4.03 2.808c-1.4.936-2.86 1.813-4.38 2.633-5.26-1.288-10.52-1.756-15.78-1.404-5.26.351-9.99.76-14.2 1.228-1.29-1.404-2.81-2.048-4.56-1.931-1.75 0-3.63.293-5.61.878-1.87.468-3.74.994-5.61 1.579-1.87.468-3.62.586-5.26.351-1.29 1.171-2.98 1.989-5.09 2.457-2.1.351-4.32.644-6.66.878-.11.585 0 .994.35 1.229.35.233.41.701.18 1.404.81 1.053 1.93 1.813 3.33 2.281l4.2 1.053c1.53.351 2.87.877 4.04 1.58 1.17.585 1.93 1.579 2.28 2.983 2.1.117 3.91.702 5.43 1.755 1.53.936 2.81 2.106 3.86 3.511a14.033 14.033 0 012.28 4.562c.47 1.521.64 2.925.53 4.213.46 1.169.93 1.637 1.4 1.404.58-.235 1.23.058 1.93.877.47 1.755 1.51 3.627 3.15 5.616 1.75 1.872 3.1 3.919 4.04 6.143.23 3.51.41 6.669.52 9.477.23 2.808-.24 5.558-1.4 8.248a43.782 43.782 0 01-8.59 13.865c-3.75 4.096-8.01 7.722-12.8 10.882a107.759 107.759 0 01-14.9 8.072c-5.266 2.224-10.465 4.096-15.607 5.617-.466-.117-1.048-.117-1.752 0-.589.117-.704-.234-.352-1.053a7.177 7.177 0 01-3.684 1.754c-1.285.235-2.743.293-4.38.177-1.522 0-3.095-.059-4.732-.177a19.855 19.855 0 00-4.56.177 59.248 59.248 0 01-2.629-2.809c-.703-.936-1.285-2.047-1.752-3.334-.589-.117-.876-.468-.876-1.053.115-.703-.122-1.053-.704-1.053 0-.468.058-.819.173-1.053.122-.234.237-.468.351-.702.467-.352.647-.585.525-.702 0-.235-.173-.41-.525-.527a5.453 5.453 0 00-.876-.702c-.229-.234-.294-.526-.172-.878.582-1.053.761-2.281.524-3.685-.115-1.521-.237-3.042-.352-4.563-.114-1.521 0-2.925.352-4.212.352-1.404 1.343-2.574 2.98-3.511 4.79.469 9.293.235 13.501-.701 4.323-.936 8.359-2.224 12.093-3.861a117.157 117.157 0 0010.874-5.265 215.49 215.49 0 0110.17-5.441c.35-1.17.87-2.165 1.58-2.983.82-.819 1.63-1.58 2.45-2.282.82-.819 1.58-1.638 2.28-2.457.7-.936 1.23-2.048 1.58-3.335.11-.468.11-.819 0-1.052-.12-.235-.3-.41-.53-.527-.23-.234-.47-.468-.7-.702-.24-.234-.35-.585-.35-1.053l-1.05-.352a1.594 1.594 0 00-.7-.175 63.886 63.886 0 00-9.65-3.861c-3.39-1.053-6.25-2.223-8.586-3.51-1.401.936-2.808 1.17-4.208.702-1.401-.468-3.095-.936-5.085-1.404-4.911-.234-9.586-.702-14.024-1.404a53.883 53.883 0 01-12.625-3.685c-.237-.703-.524-1.288-.876-1.756-.352-.584-1.17-.76-2.456-.526a23.68 23.68 0 00-2.628-3.159 25.336 25.336 0 01-2.276-3.51zm-865.42 63.883c-3.39-2.574-6.194-5.792-8.415-9.653a63.256 63.256 0 01-5.085-12.285 83.938 83.938 0 01-2.454-13.338c-.35-4.68-.467-9.127-.35-13.338 1.052-3.16 2.337-6.026 3.856-8.6a56.789 56.789 0 015.085-7.547 84.962 84.962 0 015.785-6.845 317.103 317.103 0 006.137-6.669c.7 0 1.343.176 1.928.527a9 9 0 012.104-3.334 19.518 19.518 0 012.98-2.457 53.266 53.266 0 013.156-2.282 11.953 11.953 0 002.63-2.808c2.922-.702 5.494-1.697 7.714-2.984a64.322 64.322 0 006.663-4.212 76.575 76.575 0 016.486-4.212c2.221-1.287 4.792-2.281 7.714-2.984 1.052-1.169 2.338-2.164 3.857-2.983a172.794 172.794 0 014.734-2.282 41.47 41.47 0 004.558-2.281 10.11 10.11 0 003.682-3.335c.701.937 1.694 1.287 2.981 1.053a65.586 65.586 0 003.506-1.053c.701-.116 1.286 0 1.753.352.467.35.877.76 1.227 1.228.468.351.818.585 1.052.702.351.117.701-.234 1.052-1.053.935.117 1.169.526.701 1.228l-.701 1.405c1.169-.235 2.104 0 2.805.701.818.585 2.045.995 3.682 1.229.585.585.76 1.053.526 1.404-.234.351-.409.936-.526 1.755 4.207 1.287 6.896 3.334 8.064 6.143 1.17 2.691 1.287 5.557.352 8.599-.935 2.925-2.689 5.675-5.261 8.249-2.454 2.457-5.2 4.095-8.239 4.914a297.528 297.528 0 00-10.169 2.808c-3.039.936-6.02 1.989-8.942 3.159a52.971 52.971 0 00-8.064 4.212 29.147 29.147 0 00-6.487 5.441c-3.272.936-6.253 2.223-8.941 3.861a66.378 66.378 0 00-7.363 5.44 109.418 109.418 0 00-6.487 6.319l-6.312 6.318c0 1.989-.351 3.51-1.052 4.563a53.449 53.449 0 01-2.279 3.159c.233 2.223.7 4.153 1.403 5.792.817 1.521 1.636 3.1 2.454 4.738 9.351 2.808 19.227 4.563 29.629 5.265 10.519.585 20.922.936 31.207 1.053a37.664 37.664 0 003.507 4.037 27.424 27.424 0 013.681 3.685c1.169 1.287 2.046 2.808 2.63 4.564.701 1.637.876 3.626.526 5.966a78.563 78.563 0 01-6.487 5.792l-7.013 5.265c-1.052.117-2.337.117-3.857 0a55.475 55.475 0 00-4.558-.175c-1.519 0-3.098.117-4.733.35-1.52.118-2.981.468-4.384 1.054-7.363-.234-14.902-1.112-22.616-2.633-7.714-1.638-14.844-3.568-21.389-5.791a46.272 46.272 0 00-4.032-4.213c-1.403-1.404-3.273-2.398-5.61-2.983zm243.576-131.936c-3.974 2.208-12.461 5.414-19.238 7.317-16.069 4.43-27.725 9.627-40.112 17.858-6.453 4.336-17.863 13.399-20.031 15.886-.071.11 1.345 1.226 3.125 2.503l3.287 2.373 1.815-1.468c2.913-2.314 6.242-6.462 7.842-9.632.79-1.629 1.501-2.959 1.592-2.979.452-.095-.45 3.022-1.663 5.779-1.338 3.067-4.441 7.167-6.645 8.812-1.314.938-1.257 1.209.975 3.287 1.547 1.514 4.567 5.313 6.959 8.82.965 1.448 1.432.972 3.041-3.048 1.361-3.403 3.651-5.538 9.22-8.696 5.37-2.974 7.26-5.214 14.438-16.876 8.729-14.161 10.826-17.435 9.532-14.613-2.219 4.716-9.363 17.881-12.493 22.979-3.45 5.589-5.64 7.75-10.821 10.731-4.298 2.465-5.761 3.813-7.042 6.254a80.814 80.814 0 01-2.268 4.254l-1.121 2.077 1.992 1.609c3.363 2.736 9.914 7.158 11.58 7.892l1.566.708 2.104-3.465c2.522-4.166 6.559-12.806 9.978-21.456 2.952-7.514 3.111-7.878 2.195-4.381-2.156 8.148-7.697 22.202-10.701 27.225l-2.032 3.355 4.529 2.443 4.583 2.478.902-1.324c1.35-1.889 4.914-8.729 6.623-12.724 2.028-4.723 3.483-10.599 3.754-15.14.386-7.586 3.282-16.929 9.738-31.79 4.482-10.337 4.292-9.448-1.08 5.184-4.032 10.904-6.035 18.878-6.586 26.357-.257 3.264-.797 7.2-1.225 8.754-1.1 4.196-4.118 11.394-7.026 16.869-2.366 4.464-2.48 4.818-1.604 5.389 1.413.881 9.995 4.403 10.492 4.298.227-.047 2.616-3.053 5.289-6.732 3.262-4.465 5.161-7.556 5.83-9.537 1.594-4.538 2.63-11.505 3.399-22.428.8-11.449 1.593-19.12 1.921-18.907.155.062.143.678.086 1.303-.103.636-.303 5.964-.434 11.844-.372 17.966-1.507 26.701-4.201 31.847-.64 1.221-3.078 4.898-5.419 8.129l-4.317 5.962 3.081 1.85 3.083 1.851.792-1.394.838-1.404-.41 1.644-.409 1.644 2.941 2.305c1.59 1.27 3.087 2.322 3.287 2.375 1.316.194 5.169-14.92 6.226-24.252 1.287-11.599.993-21.07-1.125-37.85-1.556-12.321-1.475-15.972.446-23.221 1.188-4.45 1.466-10.078.545-9.743-.226.048-.902.427-1.623.815zm-43.879 25.308c-.721 2.182-6.402 10.413-10.459 15.139-1.854 2.185-4.846 5.696-6.654 7.871-1.864 2.14-3.37 3.732-3.418 3.506-.152-.723 5.997-9.195 12.452-17.117 3.598-4.442 6.953-8.689 7.398-9.492 1.124-1.841 1.315-1.834.681.093zm36.658.05c-2.213 10.567-2.951 14.688-3.782 21.282-.429 3.347-.84 5.652-.99 5.164-.324-1.536.25-9.35 1.071-14.196.776-4.836 4.589-19.47 4.962-19.265.12.117-.447 3.257-1.261 7.015z" fill="#AF530A"/><path d="M240.045 144.746c-9.775 6.599-23.294 28.303-27.251 43.737-5.269 20.388-1.562 46.487 8.426 59.686 2.678 3.545 5.428 5.422 8.152 5.603 3.239.166 6.124 1.116 12.668 4.223 9.005 4.289 14.144 5.425 22.865 5.001 7.934-.352 22.099-4.003 31.684-8.152 19.431-8.4 31.194-24.348 34.301-46.5l.402-3.014-1.358-1.745c-3.556-4.588-15.372-12.819-22.856-15.916-12.297-5.152-28.674-14.688-35.711-20.809-1.323-1.138-3.328-3.502-4.486-5.195-5.989-8.752-13.91-15.49-20.941-17.785-2.985-.976-3.255-.919-5.895.866zm30.206 29.341c5.583 4.586 13.341 9.658 18.72 12.16 2.3 1.074 7.285 3.045 11.141 4.357 8.231 2.845 14.402 5.748 18.402 8.636 4.492 3.209 4.763 4.05.504 1.5-4.477-2.693-10.044-4.967-18.153-7.46-3.167-.939-7.65-2.543-9.93-3.527-5.223-2.204-14.073-7.99-18.357-11.999-3.278-3.041-7.265-7.207-6.949-7.273.09-.02 2.178 1.619 4.622 3.606zm-47.627 8.73c-1.044 3.764-2.04 12.904-2.093 18.915-.185 14.779 2.711 30.089 7.274 38.338 2.71 4.814 5.668 6.553 14.33 8.315 2.944.56 6.882 1.807 8.763 2.685 4.125 1.917 6.916 2.415 13.29 2.487 6.556.034 22.101-3.106 28.149-5.705 5.183-2.229 11.421-5.718 15.251-8.558 6.521-4.825 13.833-13.503 17.819-21.194 1.47-2.861.989-1.343-.744 2.283-2.077 4.454-7.198 11.677-10.857 15.331-10.769 10.824-26.28 17.925-42.971 19.652-9.536 1.021-15.981.397-20.681-2.013-1.164-.604-5.401-1.931-9.426-2.923-6.218-1.57-7.699-2.108-10.095-3.87-4.547-3.245-7.008-8.442-9.399-19.795-2.963-14.068-2.779-29.745.53-42.443.591-2.109 1.115-3.873 1.251-3.902.135-.028-.061 1.052-.391 2.397zm94.509 38.494c-6.376 9.991-16.71 18.408-28.109 22.893-5.744 2.252-15.183 3.961-20.466 3.706l-3.573-.191 2.763-.3c5.546-.509 17.928-3.453 21.627-5.131 10.384-4.602 21.124-13.105 27.793-21.93 2.166-2.913 2.151-2.532-.035.953zm-60.602 97.987a8453.09 8453.09 0 01-.084 6.697c0 .927-.015 1.881-.043 2.865 0 .954-.013 1.909-.042 2.864v10.109c.029 1.965.057 3.987.085 6.065.028 2.078.069 4.086.126 6.023.056 1.91.126 3.51.21 4.802.28.056.645.112 1.094.169.449.028.911.07 1.389.126l1.472.084h1.221c1.542 0 3.099-.098 4.67-.295a20.62 20.62 0 004.586-1.095 17.177 17.177 0 004.166-2.275c1.29-.954 2.412-2.176 3.366-3.664.982-1.516 1.739-3.327 2.272-5.434.561-2.134.842-4.647.842-7.539 0-6.374-1.529-11.288-4.586-14.742-3.03-3.454-7.561-5.181-13.591-5.181a44.086 44.086 0 00-3.829.168c-.646.028-1.263.07-1.852.127-.561.056-1.052.098-1.472.126zm-8.71-3.075c.673.029 1.304.042 1.893.042.505.028.996.043 1.473.043h1.051c.393 0 1.095-.015 2.104-.043 1.01-.028 2.146-.056 3.409-.084 1.29-.056 2.637-.098 4.039-.126 1.43-.056 2.749-.085 3.955-.085 3.282 0 6.41.379 9.383 1.138 2.974.758 5.583 2.007 7.827 3.749 2.272 1.713 4.067 3.973 5.386 6.781 1.318 2.78 1.977 6.22 1.977 10.32 0 4.408-.757 8.143-2.272 11.204-1.515 3.061-3.562 5.559-6.143 7.497-2.581 1.91-5.582 3.299-9.005 4.17-3.394.842-6.985 1.264-10.771 1.264-.898 0-2.02-.028-3.367-.085-1.346-.056-2.721-.112-4.123-.168-1.403-.057-2.735-.113-3.997-.169a67.386 67.386 0 00-2.819-.084v-.168c.196-.59.364-1.348.504-2.274.169-.928.295-2.065.379-3.413.113-1.376.197-3.004.253-4.885.056-1.882.084-4.086.084-6.614v-10.614c0-2.527-.028-4.731-.084-6.613a95.475 95.475 0 00-.253-4.886c-.084-1.376-.21-2.527-.379-3.454-.14-.926-.308-1.685-.504-2.274v-.169zm74.178 23.377c.561.084 1.122.155 1.683.211.589.028 1.15.042 1.683.042 3.506 0 6.157-.941 7.953-2.822 1.823-1.881 2.734-4.704 2.734-8.467 0-3.088-.729-5.531-2.187-7.329-1.431-1.797-3.549-2.695-6.354-2.695-.898 0-1.697.042-2.399.126-.672.056-1.248.127-1.725.211-.532.112-.996.224-1.388.337V339.6zm6.438 2.738c-.561.084-1.123.14-1.684.169h-1.641c-.448 0-.94-.014-1.472-.043a35.03 35.03 0 01-1.641-.126v2.064c0 2.499.028 4.689.084 6.571.056 1.853.126 3.454.21 4.802.113 1.347.239 2.485.379 3.411.14.899.308 1.643.505 2.233v.168h-9.72v-.168c.197-.59.365-1.348.505-2.274.168-.928.295-2.065.379-3.413.112-1.376.196-3.004.253-4.885.056-1.882.084-4.086.084-6.614v-10.614c0-2.527-.028-4.718-.084-6.571a94.185 94.185 0 00-.253-4.844c-.084-1.375-.211-2.527-.379-3.454-.14-.926-.308-1.685-.505-2.274v-.168c.449.028.926.056 1.431.084.421.028.883.056 1.388.084h1.599c.898 0 2.23-.084 3.997-.253 1.768-.168 3.844-.253 6.228-.253 2.413 0 4.6.295 6.564.885 1.991.59 3.689 1.432 5.091 2.527 1.431 1.095 2.525 2.429 3.282 4.001.786 1.573 1.179 3.328 1.179 5.266 0 1.516-.211 2.906-.632 4.169a12.039 12.039 0 01-1.767 3.37 13.202 13.202 0 01-2.693 2.612 18.784 18.784 0 01-3.45 1.98l8.794 12.425a87.715 87.715 0 002.272 2.907 54.774 54.774 0 002.23 2.485c.701.729 1.36 1.348 1.978 1.853.617.477 1.136.8 1.557.969v.168H341.48c0-.253-.182-.688-.547-1.305a17.116 17.116 0 00-1.22-1.98 36.078 36.078 0 00-1.389-2.022 97.461 97.461 0 00-1.009-1.432l-8.878-12.51zm43.798-8.719c0-2.527-.028-4.718-.084-6.571a93.182 93.182 0 00-.252-4.844c-.085-1.375-.211-2.527-.379-3.454-.14-.926-.308-1.685-.505-2.274v-.168h9.762v.168c-.197.589-.379 1.348-.547 2.274a52.01 52.01 0 00-.379 3.454 152.446 152.446 0 00-.21 4.844 221.493 221.493 0 00-.084 6.571v10.614c0 2.528.028 4.732.084 6.614.056 1.881.126 3.509.21 4.885.112 1.348.239 2.485.379 3.413.168.926.35 1.684.547 2.274v.168h-9.762v-.168c.197-.59.365-1.348.505-2.274.168-.928.294-2.065.379-3.413.112-1.376.196-3.004.252-4.885.056-1.882.084-4.086.084-6.614v-10.614zm34.458-17.311h8.457a3943.4 3943.4 0 008.037-.085c2.468-.056 4.586-.112 6.353-.168 1.796-.056 2.974-.141 3.535-.253l-1.641 4.549a33.542 33.542 0 00-2.567-.548 43.77 43.77 0 00-3.071-.378c-1.178-.141-2.553-.211-4.124-.211-.561 0-1.206.028-1.935.084-.73.028-1.431.071-2.104.127-.785.056-1.585.112-2.399.168v16.638c2.273-.028 4.32-.085 6.143-.169a76.197 76.197 0 004.671-.337 42.86 42.86 0 003.997-.463l-1.01 5.012a125.098 125.098 0 00-4.67-.506 86.569 86.569 0 00-4.46-.336 67.498 67.498 0 00-4.671-.169v19.123c2.609 0 5.007-.098 7.196-.295a113.19 113.19 0 005.722-.716 59.636 59.636 0 005.176-1.053l-.968 5.518a300.2 300.2 0 00-2.062-.126c-.926-.028-1.907-.056-2.946-.084-1.009 0-1.963-.015-2.861-.043h-17.798v-.168c.196-.59.365-1.348.505-2.274.168-.928.294-2.065.378-3.413.113-1.376.197-3.004.253-4.885.056-1.882.084-4.086.084-6.614v-10.614c0-2.527-.028-4.718-.084-6.571a91.966 91.966 0 00-.253-4.844c-.084-1.375-.21-2.527-.378-3.454-.14-.926-.309-1.685-.505-2.274v-.168zm58.946 2.99a8453.09 8453.09 0 01-.084 6.697c0 .927-.014 1.881-.042 2.865 0 .954-.014 1.909-.042 2.864v10.109l.084 6.065c.028 2.078.07 4.086.126 6.023.056 1.91.126 3.51.211 4.802.28.056.645.112 1.094.169.448.028.912.07 1.388.126l1.473.084h1.22c1.543 0 3.1-.098 4.671-.295a20.646 20.646 0 004.586-1.095 17.196 17.196 0 004.166-2.275c1.29-.954 2.412-2.176 3.366-3.664.982-1.516 1.739-3.327 2.272-5.434.561-2.134.842-4.647.842-7.539 0-6.374-1.529-11.288-4.587-14.742-3.03-3.454-7.56-5.181-13.591-5.181a44.006 44.006 0 00-3.829.168 35.01 35.01 0 00-1.851.127c-.561.056-1.052.098-1.473.126zm-8.71-3.075c.674.029 1.305.042 1.894.042.505.028.996.043 1.473.043h1.052c.392 0 1.093-.015 2.103-.043 1.01-.028 2.146-.056 3.408-.084 1.291-.056 2.637-.098 4.04-.126 1.431-.056 2.748-.085 3.955-.085 3.282 0 6.41.379 9.383 1.138 2.973.758 5.582 2.007 7.826 3.749 2.273 1.713 4.068 3.973 5.386 6.781 1.319 2.78 1.978 6.22 1.978 10.32 0 4.408-.758 8.143-2.272 11.204-1.515 3.061-3.563 5.559-6.144 7.497-2.58 1.91-5.581 3.299-9.004 4.17-3.394.842-6.984 1.264-10.772 1.264-.897 0-2.019-.028-3.365-.085-1.347-.056-2.721-.112-4.125-.168-1.402-.057-2.734-.113-3.997-.169a67.247 67.247 0 00-2.819-.084v-.168c.197-.59.365-1.348.505-2.274.169-.928.294-2.065.379-3.413.112-1.376.196-3.004.252-4.885.056-1.882.084-4.086.084-6.614v-10.614c0-2.527-.028-4.731-.084-6.613a96.755 96.755 0 00-.252-4.886c-.085-1.376-.21-2.527-.379-3.454-.14-.926-.308-1.685-.505-2.274v-.169zm114.232 28.01c0 2.528.028 4.732.084 6.614.056 1.881.127 3.509.211 4.885.112 1.348.238 2.485.378 3.413.141.926.309 1.684.505 2.274v.168h-9.72v-.168c.197-.59.365-1.348.505-2.274.169-.928.295-2.065.379-3.413.112-1.376.196-3.004.252-4.885.056-1.882.085-4.086.085-6.614v-10.614c0-2.527-.029-4.718-.085-6.571a93.182 93.182 0 00-.252-4.844c-.084-1.375-.21-2.527-.379-3.454-.14-.926-.308-1.685-.505-2.274v-.168h11.403a2413.813 2413.813 0 0010.099-.169c1.403-.056 2.595-.098 3.576-.126.982-.057 1.669-.127 2.062-.211l-1.725 4.549a29.538 29.538 0 00-2.525-.548 39.892 39.892 0 00-3.071-.378c-1.207-.141-2.581-.211-4.124-.211-.56 0-1.248.028-2.061.084-.786.028-1.557.071-2.315.127-.897.056-1.823.112-2.777.168v15.332a190.88 190.88 0 006.228-.169 228.49 228.49 0 004.881-.337 69.774 69.774 0 004.291-.421l-.925 5.054a284.153 284.153 0 00-5.008-.547c-1.43-.141-3.001-.266-4.712-.379a71.81 71.81 0 00-4.755-.168v6.275zm48.217-4.633c.561.084 1.122.155 1.683.211.589.028 1.15.042 1.683.042 3.507 0 6.157-.941 7.952-2.822 1.824-1.881 2.736-4.704 2.736-8.467 0-3.088-.73-5.531-2.188-7.329-1.431-1.797-3.549-2.695-6.354-2.695-.898 0-1.697.042-2.398.126-.674.056-1.249.127-1.726.211-.532.112-.996.224-1.388.337V339.6zm6.437 2.738c-.56.084-1.121.14-1.682.169h-1.641c-.449 0-.94-.014-1.473-.043a35.03 35.03 0 01-1.641-.126v2.064c0 2.499.028 4.689.084 6.571.056 1.853.127 3.454.211 4.802.112 1.347.238 2.485.378 3.411.14.899.309 1.643.505 2.233v.168h-9.72v-.168c.197-.59.365-1.348.505-2.274.169-.928.295-2.065.379-3.413.112-1.376.196-3.004.252-4.885.056-1.882.084-4.086.084-6.614v-10.614c0-2.527-.028-4.718-.084-6.571a93.182 93.182 0 00-.252-4.844c-.084-1.375-.21-2.527-.379-3.454-.14-.926-.308-1.685-.505-2.274v-.168c.449.028.926.056 1.431.084.421.028.884.056 1.389.084h1.598c.898 0 2.231-.084 3.998-.253 1.767-.168 3.843-.253 6.227-.253 2.413 0 4.601.295 6.564.885 1.992.59 3.689 1.432 5.091 2.527 1.431 1.095 2.525 2.429 3.282 4.001.786 1.573 1.178 3.328 1.178 5.266 0 1.516-.21 2.906-.631 4.169a12.013 12.013 0 01-1.767 3.37 13.202 13.202 0 01-2.693 2.612 18.784 18.784 0 01-3.45 1.98l8.794 12.425a87.715 87.715 0 002.272 2.907 54.774 54.774 0 002.23 2.485 23.179 23.179 0 001.978 1.853c.617.477 1.136.8 1.557.969v.168H638.86c0-.253-.182-.688-.547-1.305a17.255 17.255 0 00-1.22-1.98 36.62 36.62 0 00-1.389-2.022 95.75 95.75 0 00-1.01-1.432l-8.879-12.51zm76.872-8.888c0-2.498-.014-4.675-.042-6.528a103.849 103.849 0 00-.168-4.802 57.203 57.203 0 00-.295-3.37c-.112-.926-.252-1.685-.421-2.274v-.168h6.186v.168c-.169.589-.309 1.348-.421 2.274a60.125 60.125 0 00-.295 3.454 104.5 104.5 0 00-.168 4.844 442.882 442.882 0 00-.042 6.571v12.089c0 3.032-.477 5.616-1.431 7.75-.926 2.134-2.216 3.889-3.871 5.265-1.655 1.348-3.633 2.331-5.933 2.948-2.272.647-4.768.969-7.49.969-2.749 0-5.301-.309-7.658-.926-2.356-.59-4.403-1.545-6.142-2.865-1.712-1.32-3.073-3.032-4.082-5.138-.982-2.107-1.473-4.661-1.473-7.666v-12.426c0-2.527-.028-4.718-.084-6.571a93.182 93.182 0 00-.252-4.844 52.692 52.692 0 00-.379-3.454c-.14-.926-.308-1.685-.505-2.274v-.168h9.719v.168c-.196.589-.364 1.348-.504 2.274-.14.899-.267 2.022-.379 3.37a152.832 152.832 0 00-.21 4.802c-.056 1.853-.084 4.03-.084 6.528v12.595c0 2.499.378 4.563 1.136 6.191.757 1.601 1.753 2.879 2.987 3.833a11.263 11.263 0 004.208 2.022c1.571.366 3.184.547 4.838.547a21.43 21.43 0 004.881-.547c1.6-.393 3.016-1.067 4.25-2.022 1.263-.954 2.259-2.232 2.988-3.833.757-1.628 1.136-3.692 1.136-6.191V333.45zm31.978.169c0-2.527-.029-4.718-.086-6.571a100.371 100.371 0 00-.252-4.844c-.086-1.375-.215-2.527-.38-3.454-.144-.926-.309-1.685-.503-2.274v-.168h9.759v.168c-.194.589-.38 1.348-.546 2.274-.143.927-.265 2.079-.38 3.454a152.77 152.77 0 00-.209 4.844 217.44 217.44 0 00-.086 6.571v10.614c0 2.528.029 4.732.086 6.614.058 1.881.123 3.509.209 4.885.115 1.348.237 2.485.38 3.413.166.926.352 1.684.546 2.274v.168h-9.759v-.168c.194-.59.359-1.348.503-2.274.165-.928.294-2.065.38-3.413.108-1.376.194-3.004.252-4.885.057-1.882.086-4.086.086-6.614v-10.614zm46.024-14.194c-2.55 0-4.876.112-6.98.336a97.18 97.18 0 00-5.386.716 61.67 61.67 0 00-4.718 1.011l.847-5.433c.417.056 1.106.098 2.061.126.948.028 1.946.056 2.987.084 1.063 0 2.061.015 2.988.043h23.726a97.84 97.84 0 012.952-.043c1.034-.028 2.032-.056 2.987-.084.948-.028 1.637-.07 2.061-.126l.84 5.433a53.762 53.762 0 00-4.632-1.011c-1.486-.252-3.281-.491-5.386-.716-2.075-.224-4.416-.336-7.023-.336v24.808c0 2.528.029 4.732.086 6.614.051 1.881.123 3.509.209 4.885.107 1.348.237 2.485.38 3.413.137.926.309 1.684.503 2.274v.168h-9.723v-.168c.201-.59.366-1.348.51-2.274.136-.928.265-2.065.373-3.413.115-1.376.201-3.004.259-4.885.05-1.882.079-4.086.079-6.614v-24.808zm64.63 5.686h-.841c-.172-.478-.452-1.081-.847-1.812-.359-.729-.869-1.445-1.508-2.148-.618-.702-1.393-1.291-2.319-1.769-.927-.505-2.033-.758-3.325-.758-.977 0-1.86.169-2.65.506-.754.308-1.4.744-1.932 1.305-.538.562-.941 1.236-1.221 2.022a7.118 7.118 0 00-.423 2.485c0 1.461.438 2.85 1.307 4.17.897 1.32 2.003 2.64 3.324 3.959a87.101 87.101 0 004.288 3.918 50.139 50.139 0 014.294 4.127 22.65 22.65 0 013.282 4.55c.897 1.6 1.35 3.313 1.35 5.138 0 1.348-.259 2.738-.761 4.17-.474 1.432-1.264 2.724-2.356 3.875-1.091 1.152-2.499 2.093-4.208 2.822-1.709.759-3.784 1.138-6.226 1.138a21.54 21.54 0 01-3.871-.338 27.075 27.075 0 01-3.368-.841 23.249 23.249 0 01-2.736-1.012 22.92 22.92 0 01-1.974-1.095l.754-7.96h.883c.28.982.689 1.965 1.221 2.948.56.982 1.235 1.881 2.018 2.696a10.664 10.664 0 002.822 1.938c1.091.477 2.341.716 3.748.716.977 0 1.903-.155 2.772-.464.869-.337 1.616-.8 2.234-1.39a6.226 6.226 0 001.515-2.148c.366-.871.546-1.839.546-2.907 0-1.263-.252-2.429-.762-3.496a13.386 13.386 0 00-2.018-3.117 25.53 25.53 0 00-2.858-2.906 204.66 204.66 0 00-3.238-2.822 100.012 100.012 0 01-3.282-2.906 25.34 25.34 0 01-2.822-3.243 16.114 16.114 0 01-2.018-3.665c-.51-1.32-.761-2.766-.761-4.338 0-1.657.352-3.145 1.055-4.465a10.254 10.254 0 012.772-3.328 12.238 12.238 0 013.957-2.106 14.297 14.297 0 014.632-.758c1.177 0 2.269.084 3.282.253a21.03 21.03 0 012.779.631c.84.225 1.565.464 2.183.716.617.225 1.12.408 1.515.548l-.208 7.161z" fill="#AF530A"/><path d="M109.153 95.933V17.972h912.007v78.355M108.794 272.808v63.978h108.794" stroke="#AF530A" stroke-width="8" stroke-linecap="round"/><path d="M1021.87 273.167v63.26H878.61" stroke="#AF530A" stroke-width="8"/></svg>